<?xml version="1.0" encoding="UTF-8"?>
<svg id="Layer_1" data-name="Layer 1" xmlns="http://www.w3.org/2000/svg" viewBox="0 0 650.83 169.51">
  <defs>
    <style>
      .cls-1 {
        fill: #d7282f;
      }
    </style>
  </defs>
  <path class="cls-1" d="M276.89,24.39c0,6.52-3.54,13.04-10.58,15.72,6.55,2.22,11.63,7.29,11.63,16.97,0,17.24-13.76,20.44-28.92,20.44-9.44,0-17.88-.74-24.96-2V6.51c5.6-1.14,14.93-2.16,23.82-2.16,13.57,0,29.02,2.62,29.02,20.04M240.64,46.35v17.2c2.38.34,5.05.52,8.07.52,7.36,0,12.59-1.23,12.59-8.64,0-7.84-5.6-9.08-12.93-9.08h-7.73ZM248.37,33.98c7.05,0,12.25-1.2,12.25-8.34s-5.02-7.97-12.74-7.97c-2.27,0-4.95.19-7.17.46v15.85h7.67Z"/>
  <path class="cls-1" d="M287.2,59.64c0-9.88,4.37-15.87,15.63-17.71,5.41-.9,10.34-1.08,15.6-1.3,0-4.95-2.55-6.8-8.4-6.8-6.65,0-14.22.77-19.66,1.48l-1.27-11.87c5.61-.99,13.78-2.19,21.88-2.19,12.41,0,22.8,3.54,22.8,18.03v22.09c0,3.85-.12,7.08-.46,10.77-6.59,3.95-14.93,5.39-24.46,5.39-15.48,0-21.66-5.91-21.66-17.88M318.43,50.93c-3.36.22-7.17.38-10.24,1.14-3.92.96-5.51,2.27-5.51,7.38,0,4.62,2.8,5.95,7.63,5.95,2.49,0,5.29-.16,7.78-1.07.25-2.22.34-4.9.34-7.36v-6.03Z"/>
  <path class="cls-1" d="M360.7,76.79h-15.63v-39.39c0-3.84.11-7.08.46-10.77,6.59-3.81,15.32-5.38,24.28-5.38,20.25,0,22.54,8.65,22.54,20.93v34.61h-15.68v-33.42c0-6.64-1.27-9.35-8.84-9.38-2.43,0-5.1.4-6.8,1.07-.25,2.21-.34,4.89-.34,7.36v34.37Z"/>
  <path class="cls-1" d="M441.75,75.25c-4.89,1.32-11.14,2.28-18.88,2.28-18.47,0-21.22-14.15-21.22-28.62,0-17.94,4.24-27.66,24.55-27.66,6.68,0,11.51,1.02,15.45,2.31l-1.27,11.51c-3.64-.74-6.92-1.45-10.4-1.45-11.11,0-12.5,3.63-12.5,15.3,0,11.04.55,15.88,12.65,15.88,3.56,0,6.65-.65,10.25-1.42l1.36,11.88Z"/>
  <path class="cls-1" d="M448.59,49.37c0-20.38,6.56-28.12,24.75-28.12s24.73,7.86,24.73,28.12-6.56,28.16-24.73,28.16-24.75-7.72-24.75-28.16M482.33,49.37c0-11.97-1.73-15.33-8.98-15.33s-8.97,3.14-8.97,15.33,1.67,15.32,8.97,15.32,8.98-3.29,8.98-15.32"/>
  <path class="cls-1" d="M217.75,162.54l20.99-61.25c2.85-8.27,6.84-11.61,12.93-11.61s10.16,3.72,12.82,11.61l20.68,61.25h-17.9l-4.89-16.47h-22.5l-4.73,16.47h-17.4ZM258.52,133.01l-7.52-25.44-7.34,25.44h14.86Z"/>
  <path class="cls-1" d="M343.8,89.83v55.56c0,3.78,1.61,5.73,5.7,5.73,1.64,0,3.05-.16,4.75-.63l1.56,11.68c-3.31.62-7.24,1.12-10.62,1.12-12.04,0-17.15-5.33-17.15-16.04v-57.42h15.76Z"/>
  <path class="cls-1" d="M359.7,145.3c0-9.93,4.37-15.97,15.72-17.83,5.43-.9,10.4-1.08,15.67-1.3,0-4.99-2.54-6.85-8.42-6.85-6.71,0-14.29.78-19.78,1.48l-1.3-11.94c5.63-.98,13.89-2.19,22.04-2.19,12.48,0,22.93,3.55,22.93,18.13v22.23c0,3.87-.15,7.12-.47,10.83-6.62,3.96-15.01,5.42-24.63,5.42-15.54,0-21.76-5.95-21.76-17.99M391.09,136.54c-3.38.21-7.21.36-10.31,1.14-3.9.96-5.51,2.29-5.51,7.43,0,4.64,2.79,5.98,7.65,5.98,2.51,0,5.35-.16,7.83-1.08.25-2.23.34-4.92.34-7.4v-6.06ZM389.73,100.78h-12.04l8.1-13.79h15.7l-11.76,13.79Z"/>
  <path class="cls-1" d="M434.33,162.54h-15.73v-39.62c0-3.87.12-7.12.47-10.83,6.62-3.84,15.41-5.41,24.42-5.41,20.37,0,22.69,8.69,22.69,21.05v34.82h-15.79v-33.62c0-6.68-1.27-9.41-8.88-9.44-2.44,0-5.14.41-6.84,1.09-.24,2.23-.34,4.92-.34,7.39v34.58Z"/>
  <path class="cls-1" d="M514.98,94.22c0-5.7,2.11-7.89,8.53-7.89s8.53,2.19,8.53,7.89-2.08,7.89-8.53,7.89-8.53-2.19-8.53-7.89M515.55,106.68h16v55.87h-16v-55.87Z"/>
  <path class="cls-1" d="M576.11,89.83h15.88v57.2c0,3.87-.13,7.12-.47,10.83-6.24,3.8-15.01,5.41-22.74,5.41-18.67,0-26.49-6.59-26.49-28.32s7.83-28.29,24.95-28.29c2.79,0,6.1.31,8.88.83v-17.67ZM570.08,119.36c-11.51,0-11.91,6.75-11.91,15.6,0,7.8.34,15.73,10.62,15.73,2.51,0,5.29-.38,6.99-1.05.25-2.24.34-4.92.34-7.4v-22.04c-1.76-.49-4.12-.84-6.03-.84"/>
  <path class="cls-1" d="M601.96,145.3c0-9.93,4.4-15.98,15.72-17.83,5.45-.9,10.4-1.08,15.7-1.3,0-4.98-2.57-6.84-8.45-6.84-6.68,0-14.3.77-19.78,1.48l-1.27-11.94c5.63-.98,13.87-2.19,22.01-2.19,12.48,0,22.94,3.56,22.94,18.14v22.23c0,3.87-.13,7.12-.47,10.83-6.62,3.96-15.01,5.42-24.61,5.42-15.57,0-21.79-5.94-21.79-17.98M633.38,136.54c-3.37.22-7.22.37-10.31,1.14-3.92.96-5.54,2.29-5.54,7.43,0,4.64,2.82,5.97,7.68,5.97,2.51,0,5.32-.16,7.83-1.08.25-2.23.34-4.92.34-7.4v-6.07Z"/>
  <path class="cls-1" d="M493.09,89.83v16.84h13.7v13.06h-13.7v25.66c0,3.78,1.61,5.73,5.7,5.73,1.64,0,3.31-.06,5.07-.21l1.25,11.27c-3.31.62-7.24,1.12-10.62,1.12-12.04,0-17.15-5.33-17.15-16.04v-57.42h15.76Z"/>
  <path class="cls-1" d="M305.78,89.83v16.84h13.7v13.06h-13.7v25.66c0,3.78,1.61,5.73,5.7,5.73,1.64,0,3.31-.06,5.08-.21l1.24,11.27c-3.31.62-7.24,1.12-10.62,1.12-12.04,0-17.15-5.33-17.15-16.04v-57.42h15.75Z"/>
  <path class="cls-1" d="M6.94,3.82c-2.89,0-5.25,2.34-5.25,5.24v85.7c0,41.5,26.69,68.55,68.17,68.55h35.31c2.88,0,5.25-2.36,5.25-5.25v-42.19c0-2.87-2.37-5.25-5.25-5.25h-22.54c-2.89,0-16.37-.46-16.37-16.37V9.05c0-2.9-2.37-5.24-5.26-5.24H6.94Z"/>
  <path class="cls-1" d="M79.6,26.64c-2.9-.01-5.28,2.34-5.29,5.25l-.2,48.34c-.01,2.88,2.35,5.27,5.25,5.28l25.74.11c2.9.01,13.04.49,12.98,16.43l-.23,55.98c-.01,2.9,2.35,5.26,5.23,5.27l54.06.23c2.9.01,5.28-2.33,5.29-5.23l.26-62.64c.17-41.51-26.41-68.68-67.9-68.86l-35.17-.15Z"/>
</svg>