<?xml version="1.0" encoding="UTF-8"?>
<svg id="Layer_1" xmlns="http://www.w3.org/2000/svg" version="1.1" viewBox="0 0 650.8 169.5">
  <!-- Generator: Adobe Illustrator 30.3.0, SVG Export Plug-In . SVG Version: 2.1.3 Build 182)  -->
  <defs>
    <style>
      .st0 {
        fill: #fff;
      }
    </style>
  </defs>
  <path class="st0" d="M276.9,24.4c0,6.5-3.5,13-10.6,15.7,6.5,2.2,11.6,7.3,11.6,17,0,17.2-13.8,20.4-28.9,20.4s-17.9-.7-25-2V6.5c5.6-1.1,14.9-2.2,23.8-2.2,13.6,0,29,2.6,29,20M240.6,46.3v17.2c2.4.3,5.1.5,8.1.5,7.4,0,12.6-1.2,12.6-8.6s-5.6-9.1-12.9-9.1h-7.7ZM248.4,34c7.1,0,12.2-1.2,12.2-8.3s-5-8-12.7-8-4.9.2-7.2.5v15.9h7.7,0Z"/>
  <path class="st0" d="M287.2,59.6c0-9.9,4.4-15.9,15.6-17.7,5.4-.9,10.3-1.1,15.6-1.3,0-5-2.5-6.8-8.4-6.8s-14.2.8-19.7,1.5l-1.3-11.9c5.6-1,13.8-2.2,21.9-2.2,12.4,0,22.8,3.5,22.8,18v22.1c0,3.8-.1,7.1-.5,10.8-6.6,3.9-14.9,5.4-24.5,5.4-15.5,0-21.7-5.9-21.7-17.9M318.4,50.9c-3.4.2-7.2.4-10.2,1.1-3.9,1-5.5,2.3-5.5,7.4s2.8,6,7.6,6,5.3-.2,7.8-1.1c.2-2.2.3-4.9.3-7.4v-6h0Z"/>
  <path class="st0" d="M360.7,76.8h-15.6v-39.4c0-3.8.1-7.1.5-10.8,6.6-3.8,15.3-5.4,24.3-5.4,20.2,0,22.5,8.6,22.5,20.9v34.6h-15.7v-33.4c0-6.6-1.3-9.3-8.8-9.4-2.4,0-5.1.4-6.8,1.1-.2,2.2-.3,4.9-.3,7.4v34.4h0Z"/>
  <path class="st0" d="M441.8,75.2c-4.9,1.3-11.1,2.3-18.9,2.3-18.5,0-21.2-14.2-21.2-28.6s4.2-27.7,24.5-27.7,11.5,1,15.5,2.3l-1.3,11.5c-3.6-.7-6.9-1.5-10.4-1.5-11.1,0-12.5,3.6-12.5,15.3s.5,15.9,12.6,15.9,6.6-.7,10.2-1.4l1.4,11.9h0Z"/>
  <path class="st0" d="M448.6,49.4c0-20.4,6.6-28.1,24.8-28.1s24.7,7.9,24.7,28.1-6.6,28.2-24.7,28.2-24.8-7.7-24.8-28.2M482.3,49.4c0-12-1.7-15.3-9-15.3s-9,3.1-9,15.3,1.7,15.3,9,15.3,9-3.3,9-15.3"/>
  <path class="st0" d="M217.8,162.5l21-61.2c2.9-8.3,6.8-11.6,12.9-11.6s10.2,3.7,12.8,11.6l20.7,61.2h-17.9l-4.9-16.5h-22.5l-4.7,16.5h-17.4ZM258.5,133l-7.5-25.4-7.3,25.4h14.9Z"/>
  <path class="st0" d="M343.8,89.8v55.6c0,3.8,1.6,5.7,5.7,5.7s3-.2,4.8-.6l1.6,11.7c-3.3.6-7.2,1.1-10.6,1.1-12,0-17.1-5.3-17.1-16v-57.4h15.8,0Z"/>
  <path class="st0" d="M359.7,145.3c0-9.9,4.4-16,15.7-17.8,5.4-.9,10.4-1.1,15.7-1.3,0-5-2.5-6.8-8.4-6.8s-14.3.8-19.8,1.5l-1.3-11.9c5.6-1,13.9-2.2,22-2.2,12.5,0,22.9,3.6,22.9,18.1v22.2c0,3.9-.1,7.1-.5,10.8-6.6,4-15,5.4-24.6,5.4-15.5,0-21.8-5.9-21.8-18M391.1,136.5c-3.4.2-7.2.4-10.3,1.1-3.9,1-5.5,2.3-5.5,7.4s2.8,6,7.6,6,5.4-.2,7.8-1.1c.2-2.2.3-4.9.3-7.4v-6.1h0ZM389.7,100.8h-12l8.1-13.8h15.7l-11.8,13.8Z"/>
  <path class="st0" d="M434.3,162.5h-15.7v-39.6c0-3.9.1-7.1.5-10.8,6.6-3.8,15.4-5.4,24.4-5.4,20.4,0,22.7,8.7,22.7,21.1v34.8h-15.8v-33.6c0-6.7-1.3-9.4-8.9-9.4-2.4,0-5.1.4-6.8,1.1-.2,2.2-.3,4.9-.3,7.4v34.6h0Z"/>
  <path class="st0" d="M515,94.2c0-5.7,2.1-7.9,8.5-7.9s8.5,2.2,8.5,7.9-2.1,7.9-8.5,7.9-8.5-2.2-8.5-7.9M515.5,106.7h16v55.9h-16v-55.9Z"/>
  <path class="st0" d="M576.1,89.8h15.9v57.2c0,3.9-.1,7.1-.5,10.8-6.2,3.8-15,5.4-22.7,5.4-18.7,0-26.5-6.6-26.5-28.3s7.8-28.3,25-28.3,6.1.3,8.9.8v-17.7h0ZM570.1,119.4c-11.5,0-11.9,6.8-11.9,15.6s.3,15.7,10.6,15.7,5.3-.4,7-1.1c.2-2.2.3-4.9.3-7.4v-22c-1.8-.5-4.1-.8-6-.8"/>
  <path class="st0" d="M602,145.3c0-9.9,4.4-16,15.7-17.8,5.5-.9,10.4-1.1,15.7-1.3,0-5-2.6-6.8-8.5-6.8s-14.3.8-19.8,1.5l-1.3-11.9c5.6-1,13.9-2.2,22-2.2,12.5,0,22.9,3.6,22.9,18.1v22.2c0,3.9-.1,7.1-.5,10.8-6.6,4-15,5.4-24.6,5.4-15.6,0-21.8-5.9-21.8-18M633.4,136.5c-3.4.2-7.2.4-10.3,1.1-3.9,1-5.5,2.3-5.5,7.4s2.8,6,7.7,6,5.3-.2,7.8-1.1c.2-2.2.3-4.9.3-7.4v-6.1h0Z"/>
  <path class="st0" d="M493.1,89.8v16.8h13.7v13.1h-13.7v25.7c0,3.8,1.6,5.7,5.7,5.7s3.3,0,5.1-.2l1.2,11.3c-3.3.6-7.2,1.1-10.6,1.1-12,0-17.1-5.3-17.1-16v-57.4h15.8,0Z"/>
  <path class="st0" d="M305.8,89.8v16.8h13.7v13.1h-13.7v25.7c0,3.8,1.6,5.7,5.7,5.7s3.3,0,5.1-.2l1.2,11.3c-3.3.6-7.2,1.1-10.6,1.1-12,0-17.1-5.3-17.1-16v-57.4h15.8Z"/>
  <path class="st0" d="M6.9,3.8c-2.9,0-5.2,2.3-5.2,5.2v85.7c0,41.5,26.7,68.6,68.2,68.6h35.3c2.9,0,5.2-2.4,5.2-5.2v-42.2c0-2.9-2.4-5.2-5.2-5.2h-22.5c-2.9,0-16.4-.5-16.4-16.4V9.1c0-2.9-2.4-5.2-5.3-5.2H6.9Z"/>
  <path class="st0" d="M79.6,26.6c-2.9,0-5.3,2.3-5.3,5.2l-.2,48.3c0,2.9,2.3,5.3,5.2,5.3h25.7c2.9.1,13,.6,13,16.5l-.2,56c0,2.9,2.3,5.3,5.2,5.3l54.1.2c2.9,0,5.3-2.3,5.3-5.2l.3-62.6c.2-41.5-26.4-68.7-67.9-68.9h-35.2c0-.1,0-.2,0-.2Z"/>
</svg>